# xmcd
#
# Track frame offsets:
#	150
#	21722
#	36802
#	51330
#	70087
#	84120
#	103620
#	117685
#	133845
#	147172
#	161245
#	182017
#	196065
#	211530
#
# Disc length: 3011 seconds
#
# Revision: 0
# Processed by: cddbd v1.5.1PL0 Copyright (c) Steve Scherf et al.
# Submitted via: dBpowerAMP V4.0
#
DISCID=c80bc10e
DTITLE=Galpao Crioulo 2000 - Galpao Crioulo 2000
DYEAR=1900
DGENRE=Country
TTITLE0=chamameceiro - neto fagundes
TTITLE1=no imperio das estancias - os monarcas
TTITLE2=a vida que o veio mando
TTITLE3=de chao batido - os serranos
TTITLE4=oveia abichada - mano lima
TTITLE5=os cavaleiros da paz - os fagundes
TTITLE6=o rio grande me criou - tche barbaridade
TTITLE7=missioneiro - renato borghetti
TTITLE8=me da um beijo - tche guri
TTITLE9=o pau que da cavaco - joao luiz correa e vozes do vento
TTITLE10=da-lhe pata - bando gaucho
TTITLE11=marca borrada - porca veia
TTITLE12=de alma campeira - moises oliveira
TTITLE13=tapado de carrapicho - grupo balansso
EXTD=
EXTT0=
EXTT1=
EXTT2=
EXTT3=
EXTT4=
EXTT5=
EXTT6=
EXTT7=
EXTT8=
EXTT9=
EXTT10=
EXTT11=
EXTT12=
EXTT13=
PLAYORDER=
